# xmcd
#
# Track frame offsets:
#	150
#	14892
#	29734
#	43434
#	56081
#	71091
#	86737
#	101887
#	116236
#	130887
#
# Disc length: 1944 seconds
#
# Revision: 0
# Processed by: cddbd v1.5.2PL0 Copyright (c) Steve Scherf et al.
# Submitted via: EasyCDDAExtractor 16.0.6.1
#
DISCID=a307960a
DTITLE=Συλλογικός δίσκος - Ιστορία ρεμπέτικου και λαϊκού 06-3
DYEAR=2007
DGENRE=Ποικίλη
TTITLE0=Χατζηχρήστος Απόστολος-Καλφοπούλου Σ.-Βαμβακάρης Μ. - Η πεντάμορφη [Απ
TTITLE0=Χατζηχρήστος]
TTITLE1=Τσαουσάκης Πρόδρομος-Νίνου Μαρίκα - Παίξε Χρήστο το μπουζούκι [Βασ. Τσ
TTITLE1=ιτσάνης]
TTITLE2=Παγιουμτζής Στράτος - Ο κουμπαράς [Απ. Καλδάρας]
TTITLE3=Νίνου Μαρίκα-Τζουανάκος Σταύρος - Παραστράτησα για σένα [Κώστας Καπλάν
TTITLE3=ης]
TTITLE4=Παγιουμτζής Στράτος - Ο θάνατος του μπεκρή (Ο Περικλής)[Γ.Παπαϊωάννου-
TTITLE4=Κ.Μάνεσης]
TTITLE5=Πολυμέρης Φώτης-Λαμπίρη Ελένη [Έλσα Λάμπο ή Μαργαρίτη] - Για της τσιγγ
TTITLE5=άνας την καρδιά [Σ. Περιστέρης-Μ. Μάτσας]
TTITLE6=Μπίνης Τάκης-Χασκίλ Στέλλα - Καρδιά παραπονιάρα [Απ. Χατζηχρήστος-Γ. Λ
TTITLE6=ελάκης]
TTITLE7=Χασκίλ Στέλλα-Μπίνης Τ.-Περπινιάδης Σ. - Η φυλακισμένη [Μπ. Μπακάλης]
TTITLE8=Μπέλλου Σωτηρία-Τσιτσάνης Βασίλης - Κλαμένη ήρθες μιά βραδιά [Β. Τσιτσ
TTITLE8=άνης-Κ. Μάνεσης]
TTITLE9=Χατζηχρήστος Απόστολος-Αγγελοπούλου Κική - Γλυκοβραδιάζει κι ο ντουνιά
TTITLE9=ς[Απ. Χατζηχρήστος]
EXTD=
EXTT0=
EXTT1=
EXTT2=
EXTT3=
EXTT4=
EXTT5=
EXTT6=
EXTT7=
EXTT8=
EXTT9=
PLAYORDER=
